<?xml version="1.0"?>
<svg version="1.1" xmlns="http://www.w3.org/2000/svg" width="400" height="130" style="border: dashed 2px #aaa"><path fill="#c73239" d="M53.952,88.184q-4.32,0-7.272-1.98t-2.952-5.004q0-3.816,4.968-7.632q0.864-0.648,1.296-0.648t0.432,0.288q0,0.72-1.152,1.152q-4.032,3.24-4.032,6.552q0,2.376,2.16,3.996t5.4,1.62q7.056,0,13.32-6.768q3.24-3.528,3.24-8.136t-3.456-6.84q-2.88-2.016-7.776-2.016q-7.056,0-14.184,3.528q-8.784,4.248-15.876,13.212t-7.092,17.244q0,6.552,4.464,10.116t11.088,3.564q7.56,0,14.832-3.672q5.544-2.88,9.576-7.344q1.152-1.296,1.8-1.296q0.432,0,0.432,0.756t-0.792,1.548q-3.816,4.032-11.016,7.776q-8.856,4.68-17.82,4.68t-13.356-5.904q-2.952-3.888-2.952-9.288q0-2.376,0.576-5.112q1.944-9.216,10.224-17.928q5.976-6.264,14.184-9.756t15.552-3.492q3.888,0,6.768,0.936q7.848,2.448,7.848,9.864q0,4.536-2.664,7.848q-6.624,8.136-15.768,8.136z M94.35624,86.672l1.008-0.216q0.792,0,1.512,0.648t0.72,1.008t-4.464,6.948t-4.464,9.18q0,0.216,0.072,0.432q0.36,1.656,1.584,1.656q3.744,0,13.68-12.384q0.216-0.288,0.504-0.288t0.288,0.54t-0.648,1.404q-9.216,12.312-14.04,12.312q-0.648,0-1.224-0.216q-3.168-1.224-3.168-4.752q0-1.224,0.288-2.448l-4.464,4.32q-4.248,3.744-6.156,3.744t-3.636-1.224q-1.944-1.44-1.944-3.816q0-5.256,7.344-12.564t13.464-7.308q2.376,0,3.168,1.656q0.216,0.576,0.36,0.972t0.216,0.396z M72.82824,104.384q0,2.592,1.8,2.592q4.176,0,11.376-9.144l7.632-10.512q-0.576-1.008-1.872-1.008q-4.392,0-11.664,6.804t-7.272,11.268z M116.54448,107.12q-2.088,1.224-5.148,1.224t-4.68-2.016t-2.772-6.408q-1.296,1.296-1.8,1.296q-0.36,0-0.36-0.504t0.36-0.864q2.376-2.952,8.064-8.496l9.072-8.496q3.888-3.672,4.608-3.672q2.304,0,2.304,1.728q0,0.864-0.684,1.692t-1.008,1.296t-0.684,0.9q-1.296,2.232-2.628,9.216t-2.052,9.72q5.976-0.072,12.312-7.776q0.72-0.72,1.08-0.72t0.36,0.468t-0.648,1.26q-4.176,4.896-7.776,6.84q-2.16,1.08-5.616,1.8z M106.82448,99.128q0,2.448,1.62,3.996t3.636,1.548t3.096-0.792q1.44-0.792,2.844-6.624t1.692-10.296l0.288-2.448q-3.96,2.952-8.46,7.632t-4.644,6.192q-0.072,0.432-0.072,0.792z M156.22872,86.672l1.008-0.216q0.792,0,1.512,0.648t0.72,1.008t-4.464,6.948t-4.464,9.18q0,0.216,0.072,0.432q0.36,1.656,1.584,1.656q3.744,0,13.68-12.384q0.216-0.288,0.504-0.288t0.288,0.54t-0.648,1.404q-9.216,12.312-14.04,12.312q-0.648,0-1.224-0.216q-3.168-1.224-3.168-4.752q0-1.224,0.288-2.448l-4.464,4.32q-4.248,3.744-6.156,3.744t-3.636-1.224q-1.944-1.44-1.944-3.816q0-5.256,7.344-12.564t13.464-7.308q2.376,0,3.168,1.656q0.216,0.576,0.36,0.972t0.216,0.396z M134.70072,104.384q0,2.592,1.8,2.592q4.176,0,11.376-9.144l7.632-10.512q-0.576-1.008-1.872-1.008q-4.392,0-11.664,6.804t-7.272,11.268z M238.0452,94.592q0,2.592-1.152,4.896q-2.448,5.184-9.36,8.64t-14.4,3.456q-11.376,0-15.48-7.776q-7.416,6.192-10.584,6.192q-0.576,0-1.008-0.216q-2.16-1.152-2.16-4.968t3.168-9.36t5.544-6.552q1.08-0.36,1.656-0.36q2.088,0,3.168,3.456l2.16,6.912q2.088-2.232,5.688-7.128l6.408-8.64q11.808-15.336,15.48-16.776q1.296-0.504,2.664-0.504t2.268,0.576t0.9,1.44q0,1.296-2.088,1.512q-2.16,1.224-8.244,7.164t-7.236,7.524q-8.064,11.232-14.904,17.28q4.392,8.712,13.176,8.712q5.328,0,10.584-3.348t7.848-8.244q1.152-2.088,1.152-4.68t-2.052-4.932t-5.148-3.42q-1.44-0.216-4.608-0.612t-3.168-1.332q0-0.36,0.288-0.648q0.864-1.008,2.232-1.008q0.792,0,1.548,0.288t1.188,0.432t1.008,0.36q1.584,0.144,2.736,0.144q4.752,0,8.64-1.512q4.968-1.944,6.336-5.832q0.864-2.52,0.864-4.536q0-4.968-4.824-7.416q-4.176-2.16-11.448-2.16q-11.448,0-20.52,4.32q-4.608,2.16-8.748,6.408t-4.14,7.272q0,2.088,1.08,3.456q0.432,0.576,1.512,1.44q0.36,0.216-0.432,0.216q-4.464-1.008-4.464-5.976t5.04-9.36q3.744-3.24,8.424-5.256q9.72-4.176,22.104-4.176q8.856,0,14.112,2.592q6.12,2.88,6.12,8.712q0,2.304-0.936,4.68q-1.512,4.32-7.848,6.552q-4.752,1.656-10.224,1.728q4.248,0.216,7.164,3.132t2.916,7.236z M192.0372,91.928q-0.072,0-0.36,0.144q-5.328,7.704-5.328,12.384q0,1.944,0.936,3.528q0.216,0.36,0.72,0.36q2.304,0,8.856-6.552l-0.216-0.288q-2.88-9.576-4.608-9.576z M249.93744,106.76q2.376,0,6.12-2.52t7.272-6.84q0.864-1.152,1.368-1.152t0.504,0.432t-2.952,3.744q-7.2,7.92-12.024,7.92q-2.376,0-4.032-1.116t-1.656-3.456t1.224-5.436q2.088-4.896,6.696-12.312q8.424-13.68,11.952-13.68q0.72,0,1.476,0.54t0.828,1.188q-1.656,2.232-6.372,8.568t-6.516,9.108t-2.7,4.14t-1.332,2.124t-1.008,1.98q-1.224,2.448-1.224,4.608t2.376,2.16z M289.33368,86.672l1.008-0.216q0.792,0,1.512,0.648t0.72,1.008t-4.464,6.948t-4.464,9.18q0,0.216,0.072,0.432q0.36,1.656,1.584,1.656q3.744,0,13.68-12.384q0.216-0.288,0.504-0.288t0.288,0.54t-0.648,1.404q-9.216,12.312-14.04,12.312q-0.648,0-1.224-0.216q-3.168-1.224-3.168-4.752q0-1.224,0.288-2.448l-4.464,4.32q-4.248,3.744-6.156,3.744t-3.636-1.224q-1.944-1.44-1.944-3.816q0-5.256,7.344-12.564t13.464-7.308q2.376,0,3.168,1.656q0.216,0.576,0.36,0.972t0.216,0.396z M267.80568,104.384q0,2.592,1.8,2.592q4.176,0,11.376-9.144l7.632-10.512q-0.576-1.008-1.872-1.008q-4.392,0-11.664,6.804t-7.272,11.268z M309.86592,85.448q1.944,0,1.944,1.512q0,0.432-0.216,0.864q-6.48,9-7.776,13.608q16.776-16.776,20.376-16.776q0.36-0.072,0.648-0.072q2.016,0,2.016,1.8q0,0.36-0.144,0.72t-2.88,3.888q-3.168,3.744-5.364,7.2t-2.196,5.76t1.008,2.304q3.168,0,11.016-8.712q0.144-0.144,0.504-0.648q1.08-1.296,1.296-1.296t0.216,0.72t-1.008,1.872q-8.928,10.152-12.672,10.152q-3.528,0-3.528-3.888t2.88-8.928l4.608-7.488q-4.896,3.6-8.712,7.884t-6.948,8.316t-3.636,4.032q-1.08,0-1.692-0.9t-0.612-2.232t0.936-3.564t2.376-5.4l-4.32,4.536q-1.584,1.584-1.98,1.584t-0.396-0.468t0.576-1.044q2.664-2.664,4.608-5.112q1.872-2.448,7.704-9.36q0.648-0.864,1.368-0.864z M335.94216,109.136q-0.792,0-1.44-0.216q-4.608-1.296-4.608-5.184q0-5.04,6.336-11.664t11.376-6.624q1.656,0,2.7,0.9t1.044,2.448t-0.936,3.24t-2.808,1.692t-1.872-1.152q0-0.792,0.972-2.412t0.972-1.728t-0.216-0.108q-2.016,0.216-5.508,2.88t-4.788,4.464l-2.808,4.104q-0.72,1.152-1.044,2.736t-0.324,2.376t0.9,1.8t2.556,1.008q3.6,0,8.928-4.212t8.208-8.028q0.36-0.432,0.864-0.432t0.504,0.288t-0.36,0.72q-3.96,5.256-9.468,9.18t-9.18,3.924z M377.9304,86.672l1.008-0.216q0.792,0,1.512,0.648t0.72,1.008t-4.464,6.948t-4.464,9.18q0,0.216,0.072,0.432q0.36,1.656,1.584,1.656q3.744,0,13.68-12.384q0.216-0.288,0.504-0.288t0.288,0.54t-0.648,1.404q-9.216,12.312-14.04,12.312q-0.648,0-1.224-0.216q-3.168-1.224-3.168-4.752q0-1.224,0.288-2.448l-4.464,4.32q-4.248,3.744-6.156,3.744t-3.636-1.224q-1.944-1.44-1.944-3.816q0-5.256,7.344-12.564t13.464-7.308q2.376,0,3.168,1.656q0.216,0.576,0.36,0.972t0.216,0.396z M356.4024,104.384q0,2.592,1.8,2.592q4.176,0,11.376-9.144l7.632-10.512q-0.576-1.008-1.872-1.008q-4.392,0-11.664,6.804t-7.272,11.268z"/><path fill="#" d=""/></svg>
